<svg xmlns="http://www.w3.org/2000/svg" viewBox="0 0 720 120">
  <!-- Portcullis logo scaled down -->
  <svg x="0" y="0" width="120" height="120" viewBox="520 199 368 370">
    <path style="fill:#3bd0d5; stroke:none;" d="M569 204L569 228C569 231.658 569.795 236.503 567.973 239.83C560.756 253.011 537.586 248 525 248L525 258L549 258C552.671 258 557.483 257.218 560.83 259.024C569.479 263.692 569 271.539 569 280L569 307C564.761 308.185 563.139 312.594 558.957 313.683C548.889 316.305 535.409 314 525 314L525 323L549 323C552.352 323 556.66 322.317 559.83 323.603C572.654 328.807 569 346.134 569 357C569 360.988 569.848 366.176 568.397 369.961C566.897 373.872 563.197 375.822 562 380L525 380L525 389L549 389C552.609 389 557.447 388.192 560.714 390.027C569.698 395.073 569 403.11 569 412L569 439C565.07 440.109 562.742 443.659 558.911 444.682C555.255 445.658 550.757 445 547 445L525 445L525 455C535.413 455 548.887 452.699 558.961 455.318C562.812 456.319 565.091 459.883 569 461L569 488C569 496.89 569.698 504.927 560.714 509.973C557.447 511.808 552.609 511 549 511L525 511L525 520L549 520C552.352 520 556.66 519.317 559.83 520.603C562.949 521.869 567.131 526.051 568.397 529.17C569.576 532.077 569 535.922 569 539L559 539C561.93 547.049 567.474 558.41 574 564C578.829 556.112 584.421 547.952 587 539L578 539C578 531.512 578.618 526.293 585.286 521.6C589.727 518.473 597.819 520 603 520C613.39 520 628.483 516.951 633.397 529.17C634.57 532.085 634 535.917 634 539L625 539C627.559 547.884 633.202 556.16 638 564L640 564C643.604 555.389 650.181 547.848 653 539L643 539C643 535.927 642.424 532.088 643.6 529.184C648.519 517.035 663.681 520 674 520C679.245 520 687.301 518.492 691.83 521.6C698.476 526.16 699 531.658 699 539L690 539C692.635 547.956 699.065 555.572 703 564L705 564C709.213 556.002 715.974 547.834 718 539L709 539C709 531.638 709.453 526.103 716.17 521.589C720.746 518.513 728.725 520 734 520C744.23 520 759.644 516.924 764.397 529.089C765.554 532.051 765 535.878 765 539L755 539C758.167 547.65 763.928 556.311 769 564C775.393 558.519 781.024 546.862 784 539L774 539C774 531.492 774.547 526.235 781.286 521.589C785.775 518.493 793.79 520 799 520C809.362 520 824.453 516.987 829.397 529.17C830.576 532.077 830 535.922 830 539L820 539C823.237 547.554 828.956 556.352 834 564L836 564C839.624 555.342 845.781 547.791 849 539L839 539C839 535.922 838.424 532.077 839.603 529.17C840.869 526.051 845.051 521.869 848.17 520.603C851.596 519.213 856.372 520 860 520L883 520L883 511L858 511C854.213 511 849.695 511.701 846.424 509.411C843.944 507.675 840.732 504.773 839.603 501.91C838.13 498.173 839 492.95 839 489C839 478.449 835.328 462.12 846.375 455.988C849.613 454.19 854.431 455 858 455L883 455L883 445L859 445C855.289 445 850.588 445.736 847.17 444.012C839.128 439.955 839 432.817 839 425L839 395C842.909 393.883 845.188 390.319 849.039 389.318C859.112 386.699 872.587 389 883 389L883 379L858 379C854.119 379 849.614 379.634 846.17 377.486C835.615 370.906 839 355.641 839 345C839 341.05 838.13 335.827 839.603 332.09C840.787 329.086 844.487 325.573 847.286 324.024C850.573 322.204 855.378 323 859 323L883 323L883 314L846 314C844.774 309.733 840.44 307.964 839.318 303.896C838.238 299.982 839 295.033 839 291C839 280.223 835.66 265.065 847.17 259.013C850.548 257.237 855.31 258 859 258L883 258L883 248C870.414 248 847.244 253.011 840.027 239.83C838.205 236.503 839 231.658 839 228L839 204L830 204L830 228C830 231.622 830.796 236.427 828.976 239.714C822.696 251.057 808.884 248 798 248C793.609 248 788.312 248.793 784.039 247.682C780.188 246.681 777.908 243.117 774 242L774 204L765 204L765 228C765 231.658 765.795 236.503 763.973 239.83C762.458 242.596 758.777 246.212 755.83 247.397C752.138 248.882 746.91 248 743 248C732.703 248 718.837 250.949 711.318 242.42C706.241 236.661 709 222.295 709 215C709 212.196 709.918 207.026 707.397 205.028C705.317 203.379 701.472 204.002 699 204L699 242C695.602 243.025 694.025 244.602 693 248L664 248C655.976 248 648.398 248.129 644.027 239.911C642.226 236.525 643 231.704 643 228L643 204L634 204L634 229C634 232.498 634.874 237.504 632.973 240.625C626.434 251.362 610.541 248 600 248C596.026 248 590.861 248.845 587.089 247.4C584.271 246.321 581.251 243.304 579.589 240.83C577.321 237.456 578 232.865 578 229L578 204L569 204M643 307L643 277C643 273.344 641.989 267.827 644.024 264.594C645.451 262.326 648.915 258.702 651.375 257.603C654.873 256.04 660.248 257 664 257C674.86 257 691.648 253.189 697.976 264.424C700.63 269.137 699 277.731 699 283C699 289.437 701.194 300.862 697.976 306.576C691.648 317.811 674.86 314 664 314C660.213 314 654.866 314.946 651.325 313.397C648.122 311.995 646.244 308.583 643 307M634 306C627.492 302.526 622.217 295.217 617 290C606.764 279.764 594.339 269.838 586 258L615 258C618.672 258 624.144 257.003 627.406 259.013C633.887 263.008 634 269.273 634 276L634 306M765 307C761.572 308.525 759.525 310.572 758 314L730 314C726.098 314 720.85 314.89 717.17 313.397C707.04 309.285 709 297.681 709 289C709 281.804 706.413 268.518 711.279 262.734C718.145 254.571 734.286 258 744 258C747.756 258 752.257 257.341 755.911 258.318C759.039 259.155 762.429 262.497 763.976 265.285C765.922 268.793 765 274.129 765 278L765 307M822 258C813.919 269.472 801.918 279.082 792 289C786.516 294.484 781.096 301.691 774 305L774 280C774 275.893 773.297 271.018 774.318 267.015C775.208 263.522 778.41 261.164 780 258L822 258M626 314L598 314C590.203 314 583.465 314.343 579.027 306.576C577.064 303.139 578 297.811 578 294L578 266C584.536 267.834 588.336 273.805 592.804 278.576C599.669 285.906 606.9 292.9 614 300C618.332 304.332 623.386 308.395 626 314M830 266L830 294C830 301.797 830.343 308.535 822.576 312.973C819.14 314.936 813.811 314 810 314L782 314C783.399 309.408 787.444 306.549 790.576 303.003C798.527 293.999 807.483 285.517 816 277C820.216 272.784 824.118 267.651 830 266M586.089 323.6C589.86 322.155 595.026 323 599 323C609.902 323 625.299 319.475 632.411 329.576C634.98 333.225 634 338.765 634 343C634 353.257 638.297 373.832 625.911 378.411C622.369 379.72 617.715 379 614 379C603.868 379 586.45 382.637 579.603 373.42C576.968 369.872 578 364.168 578 360C578 349.542 573.576 328.395 586.089 323.6M699 372C686.466 363.171 676.789 349.825 665.999 339C661.378 334.364 654.036 329.338 652 323L680 323C683.706 323 689.188 322.007 692.486 324.024C698.907 327.95 699 334.386 699 341L699 372M756 323C754.07 329.008 747.371 333.599 743.004 337.999C731.996 349.09 721.785 362.994 709 372L709 342C709 335.034 708.241 329.115 714.58 324.589C718.001 322.146 723.02 323 727 323L756 323M782.089 323.6C785.86 322.155 791.026 323 795 323C805.711 323 821.395 319.461 828.411 329.425C830.994 333.094 830 338.744 830 343C830 353.401 834.449 373.858 822 378.397C818.412 379.706 813.759 379 810 379C799.868 379 782.45 382.637 775.603 373.42C772.968 369.872 774 364.168 774 360C774 349.542 769.576 328.395 782.089 323.6M644 331C655.472 339.081 665.082 351.082 675 361C680.484 366.484 687.691 371.904 691 379L663 379C658.958 379 653.724 379.846 650.001 377.972C647.25 376.587 644.676 373.902 643.603 371C642.382 367.694 643 363.464 643 360C643 351.466 640.694 338.879 644 331M765 331L765 373C761.928 374.366 759.81 377.407 756.674 378.49C752.637 379.885 747.22 379 743 379L716 379C728.703 360.966 749.297 349.034 762 331L765 331M585.375 389.589C588.939 388.08 594.202 389 598 389C608.599 389 624.671 385.366 631.786 394.58C634.928 398.649 634 404.138 634 409C634 419.606 638.089 438.34 626.486 444.143C622.99 445.891 617.794 445 614 445C603.949 445 585.026 448.914 579.028 438.575C577.049 435.165 578 429.792 578 426C578 416.01 573.683 394.538 585.375 389.589M692 389C683.661 400.838 671.236 410.764 661 421C655.516 426.484 650.096 433.691 643 437L643 408C643 403.923 642.175 398.844 644.564 395.286C649.206 388.371 655.601 389 663 389L692 389M765 437C758.668 434.966 753.625 427.625 749 423C738.129 412.129 724.855 401.571 716 389L746 389C750.058 389 755.198 388.151 758.714 390.589C765.556 395.333 765 401.569 765 409L765 437M781.375 389.589C784.939 388.08 790.202 389 794 389C804.846 389 821.063 385.33 828.44 394.862C831.064 398.253 830 403.961 830 408C830 418.487 834.335 438.405 822.999 443.976C819.242 445.823 814.067 445 810 445C799.828 445 780.966 449.067 775.024 438.575C773.071 435.126 774 429.819 774 426C774 416.01 769.683 394.538 781.375 389.589M699 396L699 426C699 432.967 699.759 438.885 693.42 443.411C689.999 445.854 684.98 445 681 445L651 445C657.024 436.448 665.565 429.578 672.826 422.086C681.304 413.339 688.983 403.056 699 396M710 397C721.929 405.403 732.065 418.521 742.184 429.093C747.063 434.19 753.547 438.809 757 445L729 445C725.145 445 719.914 445.898 716.286 444.397C713.393 443.201 710.155 439.869 709.318 436.83C707.144 428.936 709 418.18 709 410C709 405.74 708.339 400.959 710 397M626 455C623.503 460.35 618.667 463.754 614.714 468.039C607.421 475.946 599.605 483.395 592 491C587.668 495.332 583.605 500.386 578 503L578 473C578 466.302 577.523 460.913 583.58 456.589C587.001 454.146 592.02 455 596 455L626 455M650.286 455.603C653.914 454.102 659.145 455 663 455C673.177 455 690.723 451.213 697.411 460.58C699.995 464.2 699 469.787 699 474C699 484.083 703.458 505.541 691.714 510.397C688.086 511.898 682.855 511 679 511C668.124 511 651.707 514.684 644.589 504.575C642.147 501.106 643 496.021 643 492C643 481.917 638.542 460.459 650.286 455.603M765 461L765 491C765 494.811 765.936 500.139 763.973 503.576C762.388 506.35 758.969 509.814 755.83 510.682C751.937 511.759 747.013 511 743 511C732.834 511 716.056 514.778 709.988 504.406C707.329 499.862 709 491.125 709 486C709 479.346 706.688 467.316 710.024 461.425C715.89 451.067 733.973 455 744 455C747.757 455 752.255 454.342 755.911 455.318C759.328 456.23 761.802 459.489 765 461M830 503C822.904 499.691 817.484 492.484 812 487C801.831 476.831 790.302 466.795 782 455L812 455C818.698 455 824.087 454.523 828.411 460.58C830.854 464.001 830 469.02 830 473L830 503M634 463L634 493C634 499.621 633.979 506.119 627.486 509.987C624.151 511.974 618.729 511 615 511L586 511C588.435 505.779 592.962 502.038 597 498L618 477C622.912 472.088 627.642 465.965 634 463M775 463C786.472 471.081 796.082 483.082 806 493C811.484 498.484 818.691 503.904 822 511L794 511C790.055 511 784.776 511.886 781.17 509.987C770.109 504.161 774 486.35 774 476C774 471.74 773.339 466.959 775 463z"/>
  </svg>
  <!-- CULLIS text — vertically centered -->
  <text x="140" y="76" font-family="'Trebuchet MS', 'Lucida Sans', sans-serif" font-weight="700" font-size="64" fill="#e8e9ed" letter-spacing="14">CULLIS</text>
</svg>
