<?xml version="1.0" standalone="yes"?>
<svg xmlns="http://www.w3.org/2000/svg" width="1407" height="768">
<path style="fill:#3bd0d5; stroke:none;" d="M569 204L569 228C569 231.658 569.795 236.503 567.973 239.83C560.756 253.011 537.586 248 525 248L525 258L549 258C552.671 258 557.483 257.218 560.83 259.024C569.479 263.692 569 271.539 569 280L569 307C565.182 308.053 563.053 310.182 562 314L525 314L525 323L550 323C553.772 323 558.334 322.282 561.576 324.6C564.015 326.343 567.253 329.35 568.397 332.17C569.992 336.103 569 341.825 569 346C569 357.002 572.3 371.738 560.714 377.987C557.396 379.777 552.641 379 549 379L525 379L525 389L549 389C552.609 389 557.447 388.192 560.714 390.027C569.698 395.073 569 403.11 569 412L569 439C565.07 440.109 562.742 443.659 558.911 444.682C555.255 445.658 550.757 445 547 445L525 445L525 455C535.413 455 548.887 452.699 558.961 455.318C562.812 456.319 565.091 459.883 569 461L569 488C569 496.89 569.698 504.927 560.714 509.973C557.447 511.808 552.609 511 549 511L525 511L525 520L549 520C552.352 520 556.66 519.317 559.83 520.603C562.949 521.869 567.131 526.051 568.397 529.17C569.576 532.077 569 535.922 569 539L559 539C561.93 547.049 567.474 558.41 574 564C578.829 556.112 584.421 547.952 587 539L578 539C578 531.512 578.618 526.293 585.286 521.6C589.727 518.473 597.819 520 603 520C613.39 520 628.483 516.951 633.397 529.17C634.57 532.085 634 535.917 634 539L625 539C627.559 547.884 633.202 556.16 638 564L640 564C643.604 555.389 650.181 547.848 653 539L643 539C643 535.949 642.409 532.085 643.6 529.209C648.624 517.074 663.609 520 674 520C679.245 520 687.301 518.492 691.83 521.6C698.476 526.16 699 531.658 699 539L690 539C692.635 547.956 699.065 555.572 703 564L705 564C709.213 556.002 715.974 547.834 718 539L709 539C709 531.638 709.453 526.103 716.17 521.589C720.746 518.513 728.725 520 734 520C744.23 520 759.644 516.924 764.397 529.089C765.554 532.051 765 535.878 765 539L755 539C758.167 547.65 763.928 556.311 769 564C775.393 558.519 781.024 546.862 784 539L774 539C774 531.492 774.547 526.235 781.286 521.589C785.775 518.493 793.79 520 799 520C809.362 520 824.453 516.987 829.397 529.17C830.576 532.077 830 535.922 830 539L820 539C823.237 547.554 828.956 556.352 834 564L836 564C839.624 555.342 845.781 547.791 849 539L839 539C839 535.922 838.424 532.077 839.603 529.17C840.869 526.051 845.051 521.869 848.17 520.603C851.596 519.213 856.372 520 860 520L883 520L883 511L858 511C854.213 511 849.695 511.701 846.424 509.411C843.944 507.675 840.732 504.773 839.603 501.91C838.13 498.173 839 492.95 839 489C839 478.3 835.384 462.375 846.375 456.012C849.567 454.164 854.455 455 858 455L883 455L883 445L859 445C855.289 445 850.588 445.736 847.17 444.012C839.128 439.955 839 432.817 839 425L839 395C842.909 393.883 845.188 390.319 849.039 389.318C859.112 386.699 872.587 389 883 389L883 379L858 379C854.119 379 849.614 379.634 846.17 377.486C835.615 370.906 839 355.641 839 345C839 341.05 838.13 335.827 839.603 332.09C840.787 329.086 844.487 325.573 847.286 324.024C850.573 322.204 855.378 323 859 323L883 323L883 314L846 314C844.774 309.733 840.44 307.964 839.318 303.896C838.238 299.982 839 295.033 839 291C839 280.223 835.66 265.065 847.17 259.013C850.548 257.237 855.31 258 859 258L883 258L883 248C870.414 248 847.244 253.011 840.027 239.83C838.205 236.503 839 231.658 839 228L839 204L830 204L830 228C830 231.622 830.796 236.427 828.976 239.714C822.696 251.057 808.884 248 798 248C793.609 248 788.312 248.793 784.039 247.682C780.188 246.681 777.908 243.117 774 242L774 204L765 204L765 228C765 231.658 765.795 236.503 763.973 239.83C762.458 242.596 758.777 246.212 755.83 247.397C752.138 248.882 746.91 248 743 248C732.392 248 718.87 250.919 711.148 242.138C706.242 236.559 709 222.081 709 215C709 212.196 709.918 207.026 707.397 205.028C705.317 203.379 701.472 204.002 699 204L699 242C695.602 243.025 694.025 244.602 693 248L664 248C655.976 248 648.398 248.129 644.027 239.911C642.226 236.525 643 231.704 643 228L643 204L634 204L634 229C634 232.498 634.874 237.504 632.973 240.625C626.434 251.362 610.541 248 600 248C596.026 248 590.861 248.845 587.089 247.4C584.271 246.321 581.251 243.304 579.589 240.83C577.321 237.456 578 232.865 578 229L578 204L569 204z"/>
<path style="fill:#ffffff; stroke:none;" d="M586 258C594.339 269.838 606.764 279.764 617 290C622.217 295.217 627.491 302.526 634 306L634 280C634 275.912 634.718 271.02 633.682 267.039C632.784 263.587 629.54 261.185 628 258L586 258M643 307C646.417 308.629 648.668 312.653 652.209 313.682C656.048 314.798 661.031 314 665 314C675.701 314 691.738 317.652 697.976 306.576C701.194 300.862 699 289.437 699 283C699 277.742 700.637 269.123 697.976 264.425C692.11 254.067 674.027 258 664 258C660.236 258 655.754 257.351 652.089 258.317C649.205 259.077 645.614 262.081 644.024 264.594C641.985 267.817 643 273.352 643 277L643 307M758 314C759.551 310.515 761.553 308.61 765 307L765 278C765 274.129 765.922 268.793 763.976 265.285C762.429 262.497 759.039 259.155 755.911 258.318C752.256 257.341 747.756 258 744 258C734.286 258 718.145 254.571 711.279 262.734C706.413 268.518 709 281.804 709 289C709 297.681 707.04 309.285 717.17 313.397C720.85 314.89 726.098 314 730 314L758 314M780 258C778.41 261.164 775.208 263.522 774.318 267.015C773.297 271.018 774 275.893 774 280L774 305C781.096 301.691 786.516 294.484 792 289C801.918 279.082 813.919 269.472 822 258L780 258M578 266L578 294C578 301.797 577.657 308.535 585.424 312.973C588.861 314.936 594.189 314 598 314L626 314C623.386 308.395 618.332 304.332 614 300L592 278C587.807 273.806 583.811 267.704 578 266M782 314L810 314C813.811 314 819.14 314.936 822.576 312.973C830.343 308.535 830 301.797 830 294L830 266C823.883 267.717 820.177 273.026 816 277.536C808.934 285.166 801.368 292.63 794 300C789.852 304.149 783.743 308.28 782 314M585.17 324.013C573.82 329.991 578 349.356 578 360C578 364.168 576.968 369.872 579.603 373.42C586.45 382.637 603.868 379 614 379C617.97 379 623.177 379.857 626.83 378.012C638.072 372.331 634 353.374 634 343C634 338.765 634.98 333.225 632.411 329.576C625.197 319.33 609.067 323 598 323C594.055 323 588.776 322.114 585.17 324.013M652 323C654.036 329.338 661.378 334.364 665.999 339C676.723 349.759 686.575 363.242 699 372L699 341C699 334.386 698.907 327.95 692.486 324.024C689.188 322.007 683.706 323 680 323L652 323M709 372C721.008 362.897 731.305 349.695 742 339C746.625 334.375 753.966 329.332 756 323L727 323C723.02 323 718.001 322.146 714.58 324.589C708.241 329.115 709 335.034 709 342L709 372M781.17 324.013C769.82 329.991 774 349.356 774 360C774 364.168 772.968 369.872 775.603 373.42C782.547 382.768 800.708 379 811 379C814.801 379 819.483 379.704 822.999 377.976C834.204 372.469 830 353.35 830 343C830 338.744 830.994 333.094 828.411 329.425C821.293 319.316 804.876 323 794 323C790.055 323 784.776 322.114 781.17 324.013M643 331L643 361C643 366.079 642.44 370.933 646.148 374.941C650.33 379.462 655.337 379 661 379L691 379C688.035 372.642 681.912 367.912 677 363L656 342C651.962 337.962 648.221 333.435 643 331M762 331C749.297 349.034 728.703 360.966 716 379L743 379C747.017 379 751.931 379.754 755.83 378.682C759.234 377.747 761.787 374.5 765 373L765 331L762 331M584.594 389.988C575.392 395.43 578 408.035 578 417C578 422.811 575.97 433.379 579.013 438.486C585.229 448.92 603.788 445 614 445C617.826 445 623.117 445.924 626.576 443.976C636.55 438.358 634 426.66 634 417C634 410.894 635.953 400.686 632.44 395.425C625.567 385.134 608.934 389 598 389C594.059 389 588.116 387.906 584.594 389.988M643 437C650.096 433.691 655.516 426.484 661 421C671.236 410.764 683.661 400.838 692 389L663 389C655.601 389 649.206 388.371 644.564 395.286C642.175 398.844 643 403.923 643 408L643 437M716 389C724.855 401.571 738.129 412.129 749 423C753.625 427.625 758.668 434.966 765 437L765 409C765 401.569 765.556 395.333 758.714 390.589C755.198 388.151 750.058 389 746 389L716 389M780.594 390.013C771.453 395.647 774 407.926 774 417C774 423.159 771.871 434.212 775.589 439.42C782.367 448.914 800.669 445 811 445C815.242 445 820.226 445.742 823.995 443.411C832.782 437.977 830 425.888 830 417C830 411.261 832.047 400.608 828.988 395.594C822.515 384.984 804.617 389 794 389C790.093 389 784.057 387.879 780.594 390.013M698 396C688.821 405.179 680.158 414.827 671 424C664.267 430.744 656.495 437.199 651 445L679 445C682.855 445 688.086 445.898 691.714 444.397C694.607 443.201 697.845 439.869 698.682 436.83C700.935 428.652 699 417.477 699 409C699 404.74 699.661 399.959 698 396M709 397L709 427C709 433.698 708.523 439.087 714.58 443.411C718.001 445.854 723.02 445 727 445L757 445C754.241 440.353 749.811 436.81 746 433C739.342 426.345 732.56 419.79 726.039 413.001C720.762 407.506 716.011 400.272 709 397M578 502C583.874 500.351 587.798 495.222 591.999 491C599.497 483.466 606.697 475.675 614.039 468C618.047 463.811 623.372 460.19 626 455L596 455C589.302 455 583.913 454.523 579.589 460.58C577.146 464.001 578 469.02 578 473L578 502M649.425 456.024C640.152 461.276 643 474.064 643 483C643 489.007 640.993 499.467 644.589 504.575C651.707 514.684 668.124 511 679 511C683.064 511 688.911 512.051 692.575 509.976C703.197 503.96 699 484.314 699 474C699 469.787 699.995 464.2 697.411 460.58C690.633 451.086 672.331 455 662 455C658.181 455 652.874 454.071 649.425 456.024M765 461C761.802 459.489 759.328 456.23 755.911 455.318C752.255 454.342 747.757 455 744 455C733.973 455 715.89 451.067 710.024 461.425C706.688 467.316 709 479.346 709 486C709 491.125 707.329 499.862 709.988 504.406C716.056 514.778 732.834 511 743 511C747.013 511 751.936 511.759 755.83 510.682C758.969 509.814 762.388 506.35 763.973 503.576C765.936 500.139 765 494.811 765 491L765 461M782 455C790.302 466.795 801.831 476.831 812 487C817.484 492.484 822.904 499.691 830 503L830 473C830 469.02 830.854 464.001 828.411 460.58C824.087 454.523 818.698 455 812 455L782 455M586 511L615 511C618.648 511 624.183 512.015 627.406 509.976C634.17 505.696 634 499.026 634 492L634 463C627.642 465.965 622.912 472.088 618 477L597 498C592.962 502.038 588.435 505.779 586 511M774 463L774 491C774 498.399 773.371 504.794 780.286 509.436C783.844 511.825 788.923 511 793 511L822 511C819.035 504.642 812.912 499.912 808 495L787 474C782.962 469.962 779.221 465.435 774 463z"/>
</svg>
